<svg xmlns="http://www.w3.org/2000/svg" fill="none">
  <path d="M24.0023 23.9256V23.9992C23.9836 25.5994 23.334 27.1275 22.1946 28.2512C21.0553 29.3749 19.5184 30.0034 17.9181 30H12.0769C10.4786 30.0005 8.94454 29.3707 7.8076 28.2473C6.67067 27.1239 6.02257 25.5975 6.00394 23.9992H6.07751C6.9902 24.0005 7.89142 23.7957 8.71392 23.4001C9.53641 23.0045 10.259 22.4282 10.8276 21.7144L15.0073 15.0042L21.716 19.1686C22.4294 19.7393 23.0053 20.4632 23.401 21.2867C23.7968 22.1101 24.0022 23.012 24.0023 23.9256Z" fill="url(#paint0_linear_146_1621)"/>
  <path d="M24.0024 5.99944H23.9177C23.0065 6.00205 22.1075 6.2092 21.2871 6.60562C20.4666 7.00203 19.7456 7.57759 19.1773 8.28984L15.013 15.0083L8.28753 10.8245C7.57463 10.2571 6.99894 9.53622 6.60334 8.71545C6.20774 7.89469 6.00242 6.99524 6.00269 6.08412V5.99944C6.02348 4.40178 6.6725 2.87655 7.80931 1.75377C8.94611 0.63099 10.4793 0.00095958 12.0771 3.09748e-07H17.9197C19.5187 -0.000509691 21.0536 0.628786 22.192 1.75164C23.3305 2.8745 23.9809 4.40057 24.0024 5.99944Z" fill="url(#paint1_linear_146_1621)"/>
  <path d="M15.0069 15.0042L10.8273 21.7143C10.2585 22.4284 9.53572 23.0047 8.71297 23.4004C7.89022 23.796 6.98873 24.0007 6.07579 23.9992H6.00222C4.40352 23.9816 2.87632 23.3339 1.75244 22.1968C0.628568 21.0596 -0.00118706 19.525 6.36873e-06 17.9262V12.0836C-0.00230857 10.4836 0.626547 8.94735 1.75005 7.80826C2.87355 6.66916 4.40102 6.01919 6.00083 5.99945V6.08413C6.00057 6.99525 6.20589 7.8947 6.60149 8.71546C6.99709 9.53622 7.57278 10.2572 8.28568 10.8245L15.0069 15.0042Z" fill="url(#paint2_linear_146_1621)"/>
  <path d="M30.0015 12.0836V17.9262C30.0001 19.5237 29.3699 21.0565 28.2472 22.193C27.1245 23.3295 25.5994 23.9784 24.002 23.9992V23.9256C24.0012 23.0129 23.7953 22.1121 23.3996 21.2897C23.0039 20.4673 22.4284 19.7443 21.7158 19.1741L15.007 15.0097L19.1714 8.29123C19.7401 7.578 20.462 7.00174 21.2835 6.60505C22.1049 6.20836 23.0051 6.00139 23.9173 5.99945H24.002C25.6011 6.02099 27.1274 6.67158 28.2503 7.81032C29.3732 8.94907 30.0023 10.4843 30.0015 12.0836Z" fill="url(#paint3_linear_146_1621)"/>
  <defs>
    <linearGradient id="paint0_linear_146_1621" x1="19.3479" y1="0.359573" x2="14.0606" y2="29.4156" gradientUnits="userSpaceOnUse">
      <stop stop-color="#F7BDD2"/>
      <stop offset="0.07" stop-color="#E4A6D8"/>
      <stop offset="0.23" stop-color="#C079E4"/>
      <stop offset="0.39" stop-color="#A253EE"/>
      <stop offset="0.54" stop-color="#8A36F5"/>
      <stop offset="0.7" stop-color="#7922FB"/>
      <stop offset="0.85" stop-color="#6F15FE"/>
      <stop offset="1" stop-color="#6C11FF"/>
    </linearGradient>
    <linearGradient id="paint1_linear_146_1621" x1="15.0018" y1="-0.431704" x2="15.0018" y2="29.1019" gradientUnits="userSpaceOnUse">
      <stop stop-color="#F7BDD2"/>
      <stop offset="0.07" stop-color="#E4A6D8"/>
      <stop offset="0.23" stop-color="#C079E4"/>
      <stop offset="0.39" stop-color="#A253EE"/>
      <stop offset="0.54" stop-color="#8A36F5"/>
      <stop offset="0.7" stop-color="#7922FB"/>
      <stop offset="0.85" stop-color="#6F15FE"/>
      <stop offset="1" stop-color="#6C11FF"/>
    </linearGradient>
    <linearGradient id="paint2_linear_146_1621" x1="0.827324" y1="13.8645" x2="29.0533" y2="20.4595" gradientUnits="userSpaceOnUse">
      <stop stop-color="#F7BDD2"/>
      <stop offset="0.07" stop-color="#E4A6D8"/>
      <stop offset="0.23" stop-color="#C079E4"/>
      <stop offset="0.39" stop-color="#A253EE"/>
      <stop offset="0.54" stop-color="#8A36F5"/>
      <stop offset="0.7" stop-color="#7922FB"/>
      <stop offset="0.85" stop-color="#6F15FE"/>
      <stop offset="1" stop-color="#6C11FF"/>
    </linearGradient>
    <linearGradient id="paint3_linear_146_1621" x1="0.562271" y1="15" x2="29.5489" y2="15" gradientUnits="userSpaceOnUse">
      <stop stop-color="#F7BDD2"/>
      <stop offset="0.07" stop-color="#E4A6D8"/>
      <stop offset="0.23" stop-color="#C079E4"/>
      <stop offset="0.39" stop-color="#A253EE"/>
      <stop offset="0.54" stop-color="#8A36F5"/>
      <stop offset="0.7" stop-color="#7922FB"/>
      <stop offset="0.85" stop-color="#6F15FE"/>
      <stop offset="1" stop-color="#6C11FF"/>
    </linearGradient>
  </defs>
</svg>
